<?xml version="1.0" standalone="no"?>
<!DOCTYPE svg PUBLIC "-//W3C//DTD SVG 20010904//EN"
 "http://www.w3.org/TR/2001/REC-SVG-20010904/DTD/svg10.dtd">
<svg version="1.0" xmlns="http://www.w3.org/2000/svg"
 width="256.000000pt" height="256.000000pt" viewBox="0 0 256.000000 256.000000"
 preserveAspectRatio="xMidYMid meet">
<metadata>
Created by potrace 1.14, written by Peter Selinger 2001-2017
</metadata>
<g transform="translate(0.000000,256.000000) scale(0.100000,-0.100000)"
fill="#000000" stroke="none">
<path d="M907 1973 c-185 -119 -336 -217 -335 -218 5 -5 669 13 674 18 2 2 3
97 2 210 l-3 206 -338 -216z"/>
<path d="M1310 1982 l0 -210 123 -6 c216 -10 559 -14 550 -6 -4 4 -147 96
-318 205 -170 109 -320 205 -332 213 l-23 14 0 -210z"/>
<path d="M846 1699 c-176 -5 -325 -10 -332 -11 -8 -2 33 -125 124 -370 75
-203 139 -368 142 -368 6 0 440 742 440 753 0 4 -12 6 -27 5 -16 0 -172 -5
-347 -9z"/>
<path d="M1345 1690 c11 -29 430 -740 436 -740 3 0 67 165 141 368 l135 367
-141 7 c-78 3 -239 8 -359 10 -191 3 -217 1 -212 -12z"/>
<path d="M1052 1287 l-222 -382 446 -3 c246 -1 449 -1 451 1 4 5 -440 767
-447 767 -3 0 -105 -172 -228 -383z"/>
<path d="M490 1201 l0 -333 33 5 c17 3 72 9 120 13 76 6 87 9 82 23 -4 9 -56
151 -117 316 -61 165 -112 302 -114 304 -2 2 -4 -145 -4 -328z"/>
<path d="M1948 1212 l-116 -317 56 -6 c31 -4 85 -9 120 -13 l62 -6 0 330 c0
182 -1 330 -2 330 -2 0 -56 -143 -120 -318z"/>
<path d="M850 833 c0 -12 419 -468 430 -468 11 0 430 456 430 468 0 4 -193 7
-430 7 -236 0 -430 -3 -430 -7z"/>
<path d="M601 821 l-53 -6 257 -165 c142 -91 265 -169 274 -174 17 -10 5 3
-194 222 l-120 132 -55 -2 c-30 -1 -79 -4 -109 -7z"/>
<path d="M1675 699 c-202 -223 -212 -235 -185 -218 42 26 505 322 509 326 11
8 -12 12 -104 18 l-100 7 -120 -133z"/>
</g>
</svg>
